# xmcd
#
# Track frame offsets: 
#        150
#        14144
#        28570
#        37548
#        50337
#        60489
#        83995
#        95821
#        108233
#        124408
#        134445
#
# Disc length: 1984 seconds
#
# Revision: 0
# Processed by: cddbd v1.5.2PL0 Copyright (c) Steve Scherf et al.
# Submitted via: ExactAudioCopyFreeDBPlugin 1.0
#
DISCID=8f07be0b
DTITLE=Willie Heath Neal - ggg
DYEAR=2002
DGENRE=Country
TTITLE0=El Diablo
TTITLE1=Whiskey Stains
TTITLE2=Each Road Gets Twice As Long
TTITLE3=You'd Come Back
TTITLE4=Madelyn's Song
TTITLE5=Unknown
TTITLE6=Rocks In My Pocket
TTITLE7=Willie's Rant
TTITLE8=The Damsel
TTITLE9=Fear and Loathing (In A Small Town)
TTITLE10=Bonustrack
EXTD=
EXTT0=
EXTT1=
EXTT2=
EXTT3=
EXTT4=
EXTT5=
EXTT6=
EXTT7=
EXTT8=
EXTT9=
EXTT10=
PLAYORDER=
